G04*
G04 #@! TF.GenerationSoftware,Altium Limited,Altium Designer,18.1.7 (191)*
G04*
G04 Layer_Color=16711935*
%FSLAX25Y25*%
%MOIN*%
G70*
G01*
G75*
%ADD51C,0.00394*%
D51*
X159646Y-81791D02*
G03*
X159646Y-81791I-1969J0D01*
G01*
X123031Y-88583D02*
G03*
X123031Y-88583I-24606J0D01*
G01*
X129035Y-99803D02*
Y-91142D01*
X134744Y-99803D02*
Y-91142D01*
X129035Y-99803D02*
X134744D01*
X129035Y-91142D02*
X134744D01*
X57677Y-168504D02*
Y-145669D01*
X17677Y-168504D02*
X57677D01*
X17677D02*
Y-145669D01*
X57677D01*
X78701Y-168425D02*
Y-145590D01*
Y-168425D02*
X108701D01*
Y-145590D01*
X78701D02*
X108701D01*
X50295Y-27953D02*
Y-19291D01*
X56004Y-27953D02*
Y-19291D01*
X50295Y-27953D02*
X56004D01*
X50295Y-19291D02*
X56004D01*
X40453Y-19291D02*
X46161D01*
X40453Y-27953D02*
X46161D01*
Y-19291D01*
X40453Y-27953D02*
Y-19291D01*
X58465Y-11441D02*
Y13559D01*
X28465Y-11441D02*
X58465D01*
X28465D02*
Y13559D01*
X58465D01*
X30807Y-33071D02*
X36122D01*
X30807Y-41732D02*
X36122D01*
Y-33071D01*
X30807Y-41732D02*
Y-33071D01*
X30768Y-25984D02*
Y-17323D01*
X36476Y-25984D02*
Y-17323D01*
X30768Y-25984D02*
X36476D01*
X30768Y-17323D02*
X36476D01*
X42421Y-49606D02*
X48130D01*
X42421Y-40945D02*
X48130D01*
X42421Y-49606D02*
Y-40945D01*
X48130Y-49606D02*
Y-40945D01*
X118071Y-144587D02*
X178071D01*
X118071Y-169587D02*
X178071D01*
X118071D02*
Y-144587D01*
X178071Y-169587D02*
Y-144587D01*
X161221Y-85335D02*
Y-64272D01*
X139961Y-85335D02*
Y-64272D01*
Y-85335D02*
X161221D01*
X139961Y-64272D02*
X161221D01*
X137894Y-100787D02*
X143602D01*
X137894Y-92126D02*
X143602D01*
X137894Y-100787D02*
Y-92126D01*
X143602Y-100787D02*
Y-92126D01*
X146752Y-100787D02*
X152461D01*
X146752Y-92126D02*
X152461D01*
X146752Y-100787D02*
Y-92126D01*
X152461Y-100787D02*
Y-92126D01*
X70374Y-135039D02*
Y-126378D01*
X64665Y-135039D02*
Y-126378D01*
X70374D01*
X64665Y-135039D02*
X70374D01*
X176594Y-126398D02*
Y-111791D01*
X150177Y-126398D02*
Y-111791D01*
X176594D01*
X150177Y-126398D02*
X176594D01*
X47343Y-124606D02*
X53051D01*
X47343Y-133268D02*
X53051D01*
Y-124606D01*
X47343Y-133268D02*
Y-124606D01*
X56201D02*
X61910D01*
X56201Y-133268D02*
X61910D01*
Y-124606D01*
X56201Y-133268D02*
Y-124606D01*
X25098Y-130905D02*
X30413D01*
X25098Y-122244D02*
X30413D01*
X25098Y-130905D02*
Y-122244D01*
X30413Y-130905D02*
Y-122244D01*
X175000Y-100984D02*
Y-93898D01*
X161614Y-100984D02*
Y-93898D01*
Y-100984D02*
X175000D01*
X161614Y-93898D02*
X175000D01*
X183465Y-133268D02*
Y-126969D01*
X186615Y-133268D02*
Y-126969D01*
X183465Y-126969D02*
X186614D01*
X183465Y-133268D02*
X186615D01*
X35925Y-122244D02*
X41240D01*
X35925Y-130905D02*
X41240D01*
Y-122244D01*
X35925Y-130905D02*
Y-122244D01*
X182382Y-108858D02*
X187697D01*
X182382Y-117520D02*
X187697D01*
Y-108858D01*
X182382Y-117520D02*
Y-108858D01*
X14272Y-122244D02*
X19587D01*
X14272Y-130905D02*
X19587D01*
Y-122244D01*
X14272Y-130905D02*
Y-122244D01*
X-2598Y-125984D02*
X8898D01*
X-2598Y-131102D02*
X8898D01*
Y-125984D01*
X-2598Y-131102D02*
Y-125984D01*
X70807Y-33071D02*
X76122D01*
X70807Y-41732D02*
X76122D01*
Y-33071D01*
X70807Y-41732D02*
Y-33071D01*
X109547D02*
X114862D01*
X109547Y-41732D02*
X114862D01*
Y-33071D01*
X109547Y-41732D02*
Y-33071D01*
X148917D02*
X154232D01*
X148917Y-41732D02*
X154232D01*
Y-33071D01*
X148917Y-41732D02*
Y-33071D01*
X98465Y-11441D02*
Y13559D01*
X68465Y-11441D02*
X98465D01*
X68465D02*
Y13559D01*
X98465D01*
X138465Y-11441D02*
Y13559D01*
X108465Y-11441D02*
X138465D01*
X108465D02*
Y13559D01*
X138465D01*
X178465Y-11441D02*
Y13559D01*
X148465Y-11441D02*
X178465D01*
X148465D02*
Y13559D01*
X178465D01*
X70768Y-25984D02*
Y-17323D01*
X76476Y-25984D02*
Y-17323D01*
X70768Y-25984D02*
X76476D01*
X70768Y-17323D02*
X76476D01*
X111319Y-25984D02*
Y-17323D01*
X117028Y-25984D02*
Y-17323D01*
X111319Y-25984D02*
X117028D01*
X111319Y-17323D02*
X117028D01*
X150768Y-25984D02*
Y-17323D01*
X156476Y-25984D02*
Y-17323D01*
X150768Y-25984D02*
X156476D01*
X150768Y-17323D02*
X156476D01*
X90847Y-26988D02*
Y-18327D01*
X96555Y-26988D02*
Y-18327D01*
X90847Y-26988D02*
X96555D01*
X90847Y-18327D02*
X96555D01*
X130610Y-26988D02*
Y-18327D01*
X136319Y-26988D02*
Y-18327D01*
X130610Y-26988D02*
X136319D01*
X130610Y-18327D02*
X136319D01*
X170217Y-26988D02*
Y-18327D01*
X175925Y-26988D02*
Y-18327D01*
X170217Y-26988D02*
X175925D01*
X170217Y-18327D02*
X175925D01*
X81791Y-49606D02*
X87500D01*
X81791Y-40945D02*
X87500D01*
X81791Y-49606D02*
Y-40945D01*
X87500Y-49606D02*
Y-40945D01*
X120610Y-49606D02*
X126319D01*
X120610Y-40945D02*
X126319D01*
X120610Y-49606D02*
Y-40945D01*
X126319Y-49606D02*
Y-40945D01*
X160531Y-49606D02*
X166240D01*
X160531Y-40945D02*
X166240D01*
X160531Y-49606D02*
Y-40945D01*
X166240Y-49606D02*
Y-40945D01*
X80610Y-18287D02*
X86319D01*
X80610Y-26949D02*
X86319D01*
Y-18287D01*
X80610Y-26949D02*
Y-18287D01*
X120768Y-19291D02*
X126476D01*
X120768Y-27953D02*
X126476D01*
Y-19291D01*
X120768Y-27953D02*
Y-19291D01*
X160531D02*
X166240D01*
X160531Y-27953D02*
X166240D01*
Y-19291D01*
X160531Y-27953D02*
Y-19291D01*
M02*
