G04*
G04 #@! TF.GenerationSoftware,Altium Limited,Altium Designer,18.1.7 (191)*
G04*
G04 Layer_Color=8388736*
%FSLAX25Y25*%
%MOIN*%
G70*
G01*
G75*
%ADD24R,0.06272X0.04698*%
%ADD25R,0.06509X0.05328*%
%ADD26R,0.06706X0.05721*%
%ADD27O,0.10642X0.03556*%
%ADD28R,0.13202X0.05131*%
%ADD29R,0.04343X0.05131*%
%ADD30R,0.04540X0.07493*%
%ADD31R,0.03950X0.03162*%
%ADD32R,0.03950X0.04343*%
%ADD33C,0.22453*%
%ADD34R,0.07493X0.07493*%
%ADD35C,0.07493*%
%ADD36C,0.06902*%
%ADD37R,0.06902X0.06902*%
%ADD38R,0.06312X0.06312*%
%ADD39C,0.06312*%
%ADD40C,0.05800*%
D24*
X131890Y-98445D02*
D03*
Y-92500D02*
D03*
X53150Y-26594D02*
D03*
Y-20650D02*
D03*
X33622Y-24626D02*
D03*
Y-18681D02*
D03*
X67520Y-127736D02*
D03*
Y-133681D02*
D03*
X73622Y-24626D02*
D03*
Y-18681D02*
D03*
X114173Y-24626D02*
D03*
Y-18681D02*
D03*
X153622Y-24626D02*
D03*
Y-18681D02*
D03*
X93701Y-25630D02*
D03*
Y-19685D02*
D03*
X133465Y-25630D02*
D03*
Y-19685D02*
D03*
X173071Y-25630D02*
D03*
Y-19685D02*
D03*
D25*
X43307Y-20079D02*
D03*
Y-27165D02*
D03*
X45276Y-48819D02*
D03*
Y-41732D02*
D03*
X140748Y-100000D02*
D03*
Y-92913D02*
D03*
X149606Y-100000D02*
D03*
Y-92913D02*
D03*
X50197Y-125394D02*
D03*
Y-132480D02*
D03*
X59055Y-125394D02*
D03*
Y-132480D02*
D03*
X84646Y-48819D02*
D03*
Y-41732D02*
D03*
X123465Y-48819D02*
D03*
Y-41732D02*
D03*
X163386Y-48819D02*
D03*
Y-41732D02*
D03*
X83465Y-19075D02*
D03*
Y-26161D02*
D03*
X123622Y-20079D02*
D03*
Y-27165D02*
D03*
X163386Y-20079D02*
D03*
Y-27165D02*
D03*
D26*
X33465Y-33268D02*
D03*
Y-41535D02*
D03*
X27756Y-130709D02*
D03*
Y-122441D02*
D03*
X38583D02*
D03*
Y-130709D02*
D03*
X185039Y-109055D02*
D03*
Y-117323D02*
D03*
X16929Y-122441D02*
D03*
Y-130709D02*
D03*
X73465Y-33268D02*
D03*
Y-41535D02*
D03*
X112205Y-33268D02*
D03*
Y-41535D02*
D03*
X151575Y-33268D02*
D03*
Y-41535D02*
D03*
D27*
X164173Y-82303D02*
D03*
Y-77303D02*
D03*
Y-72303D02*
D03*
Y-67303D02*
D03*
X137008Y-82303D02*
D03*
Y-77303D02*
D03*
Y-72303D02*
D03*
Y-67303D02*
D03*
D28*
X163386Y-105905D02*
D03*
D29*
X172441Y-132283D02*
D03*
X163386D02*
D03*
X154331D02*
D03*
D30*
X173819Y-97441D02*
D03*
X162795D02*
D03*
D31*
X185039Y-132972D02*
D03*
Y-127264D02*
D03*
D32*
X6890Y-124606D02*
D03*
X-591D02*
D03*
X3150Y-132480D02*
D03*
D33*
X196850Y-157480D02*
D03*
Y-1969D02*
D03*
X0Y0D02*
D03*
Y-157480D02*
D03*
D34*
X52677Y-157087D02*
D03*
X103701Y-157087D02*
D03*
D35*
X42677Y-157087D02*
D03*
X32677D02*
D03*
X22677D02*
D03*
X93701Y-157087D02*
D03*
X83701D02*
D03*
D36*
X53465Y1059D02*
D03*
X43465D02*
D03*
X143071Y-157087D02*
D03*
X153071D02*
D03*
X163071D02*
D03*
X173071D02*
D03*
X133071D02*
D03*
X93465Y1059D02*
D03*
X83465D02*
D03*
X133465D02*
D03*
X123465D02*
D03*
X173465D02*
D03*
X163465D02*
D03*
D37*
X33465D02*
D03*
X123071Y-157087D02*
D03*
X73465Y1059D02*
D03*
X113465D02*
D03*
X153465D02*
D03*
D38*
X98425Y-78740D02*
D03*
D39*
Y-98425D02*
D03*
D40*
X147638Y-78740D02*
D03*
X108268Y-86614D02*
D03*
X116142Y-79724D02*
D03*
X108267Y-78740D02*
D03*
X122047Y-80709D02*
D03*
X186023Y-105315D02*
D03*
X178150Y-97441D02*
D03*
X179134Y-25630D02*
D03*
X139764Y-25591D02*
D03*
X100354Y-25630D02*
D03*
X60039Y-26575D02*
D03*
X149606Y-104331D02*
D03*
X140748D02*
D03*
X59055Y-121063D02*
D03*
X50197Y-121063D02*
D03*
X42677Y-119095D02*
D03*
X-984Y-120079D02*
D03*
X154331Y-128150D02*
D03*
X172697Y-67303D02*
D03*
X163386Y-53071D02*
D03*
X163386Y-31417D02*
D03*
X123465Y-52756D02*
D03*
X123622Y-30945D02*
D03*
X84646Y-53150D02*
D03*
X83465Y-30276D02*
D03*
X43307Y-31339D02*
D03*
X45276Y-53150D02*
D03*
X96457Y-69882D02*
D03*
X127756Y-67677D02*
D03*
X121063Y-72835D02*
D03*
M02*
