M48
;Layer_Color=9474304
;FILE_FORMAT=2:5
INCH,LZ
;TYPE=PLATED
T1F00S00C0.02800
T2F00S00C0.03543
T3F00S00C0.04016
T4F00S00C0.04134
T5F00S00C0.04685
T6F00S00C0.12992
%
T01
X-0000984Y-0120079
X0042677Y-0119095
X0050197Y-0121063
X0059055Y-0121063
X0045276Y-005315
X0043307Y-0031339
X0060039Y-0026575
X0083465Y-0030276
X0084646Y-005315
X0096457Y-0069882
X0108267Y-007874
X0108268Y-0086614
X0116142Y-0079724
X0122047Y-0080709
X0121063Y-0072835
X0127756Y-0067677
X0123465Y-0052756
X0123622Y-0030945
X0139764Y-0025591
X0163386Y-0031417
X0179134Y-002563
X0163386Y-0053071
X0172697Y-0067303
X017815Y-0097441
X0186023Y-0105315
X0149606Y-0104331
X0140748
X0147638Y-007874
X0154331Y-012815
X0100354Y-002563
T02
X0098425Y-0098425
Y-007874
T03
X0123071Y-0157087
X0133071
X0143071
X0153071
X0163071
X0173071
T04
X0113465Y0001059
X0123465
X0133465
X0153465
X0163465
X0173465
X0093465
X0083465
X0073465
X0053465
X0043465
X0033465
T05
X0022677Y-0157087
X0032677
X0042677
X0052677
X0083701Y-0157087
X0093701
X0103701
T06
X0Y-015748
X019685
Y-0001969
X0Y0
M30
