G04*
G04 #@! TF.GenerationSoftware,Altium Limited,Altium Designer,18.1.7 (191)*
G04*
G04 Layer_Color=32768*
%FSLAX25Y25*%
%MOIN*%
G70*
G01*
G75*
%ADD51C,0.00394*%
%ADD52C,0.00197*%
D51*
X129921Y-95472D02*
X133858D01*
X131890Y-97441D02*
Y-93504D01*
X37677Y-159055D02*
Y-155118D01*
X35709Y-157087D02*
X39646D01*
X91732D02*
X95669D01*
X93701Y-159055D02*
Y-155118D01*
X51181Y-23622D02*
X55118D01*
X53150Y-25591D02*
Y-21654D01*
X43307Y-25591D02*
Y-21654D01*
X41339Y-23622D02*
X45276D01*
X43465Y-909D02*
Y3028D01*
X41496Y1059D02*
X45433D01*
X33465Y-39370D02*
Y-35433D01*
X31496Y-37402D02*
X35433D01*
X31654Y-21654D02*
X35591D01*
X33622Y-23622D02*
Y-19685D01*
X45276Y-47244D02*
Y-43307D01*
X43307Y-45276D02*
X47244D01*
X148071Y-159055D02*
Y-155118D01*
X146102Y-157087D02*
X150039D01*
X148622Y-74803D02*
X152559D01*
X150591Y-76772D02*
Y-72835D01*
X140748Y-98425D02*
Y-94488D01*
X138779Y-96457D02*
X142717D01*
X149606Y-98425D02*
Y-94488D01*
X147638Y-96457D02*
X151575D01*
X65551Y-130709D02*
X69488D01*
X67520Y-132677D02*
Y-128740D01*
X98425Y-90551D02*
Y-86614D01*
X96457Y-88583D02*
X100394D01*
X161417Y-119095D02*
X165354D01*
X163386Y-121063D02*
Y-117126D01*
X50197Y-130905D02*
Y-126969D01*
X48228Y-128937D02*
X52165D01*
X59055Y-130905D02*
Y-126969D01*
X57087Y-128937D02*
X61024D01*
X27756Y-128543D02*
Y-124606D01*
X25787Y-126575D02*
X29724D01*
X166339Y-97441D02*
X170276D01*
X168307Y-99410D02*
Y-95472D01*
X184055Y-130118D02*
X186024D01*
X185039Y-131102D02*
Y-129134D01*
X38583Y-128543D02*
Y-124606D01*
X36614Y-126575D02*
X40551D01*
X185039Y-115157D02*
Y-111221D01*
X183071Y-113189D02*
X187008D01*
X16929Y-128543D02*
Y-124606D01*
X14961Y-126575D02*
X18898D01*
X3150Y-130512D02*
Y-126575D01*
X1181Y-128543D02*
X5118D01*
X73465Y-39370D02*
Y-35433D01*
X71496Y-37402D02*
X75433D01*
X112205Y-39370D02*
Y-35433D01*
X110236Y-37402D02*
X114173D01*
X151575Y-39370D02*
Y-35433D01*
X149606Y-37402D02*
X153543D01*
X83465Y-909D02*
Y3028D01*
X81496Y1059D02*
X85433D01*
X123465Y-909D02*
Y3028D01*
X121496Y1059D02*
X125433D01*
X163465Y-909D02*
Y3028D01*
X161496Y1059D02*
X165433D01*
X71653Y-21654D02*
X75590D01*
X73622Y-23622D02*
Y-19685D01*
X112205Y-21654D02*
X116142D01*
X114173Y-23622D02*
Y-19685D01*
X151654Y-21654D02*
X155591D01*
X153622Y-23622D02*
Y-19685D01*
X91732Y-22658D02*
X95669D01*
X93701Y-24626D02*
Y-20689D01*
X131496Y-22658D02*
X135433D01*
X133465Y-24626D02*
Y-20689D01*
X171102Y-22658D02*
X175039D01*
X173071Y-24626D02*
Y-20689D01*
X84646Y-47244D02*
Y-43307D01*
X82677Y-45276D02*
X86614D01*
X123465Y-47244D02*
Y-43307D01*
X121496Y-45276D02*
X125433D01*
X163386Y-47244D02*
Y-43307D01*
X161417Y-45276D02*
X165354D01*
X83465Y-24587D02*
Y-20650D01*
X81496Y-22618D02*
X85433D01*
X123622Y-25591D02*
Y-21654D01*
X121654Y-23622D02*
X125591D01*
X163386Y-25591D02*
Y-21654D01*
X161417Y-23622D02*
X165354D01*
D52*
X123425Y-88583D02*
G03*
X123425Y-88583I-25000J0D01*
G01*
X128543Y-100787D02*
Y-90158D01*
X135236Y-100787D02*
Y-90158D01*
X128543Y-100787D02*
X135236D01*
X128543Y-90158D02*
X135236D01*
X17284Y-145276D02*
X58071D01*
X17284Y-168898D02*
Y-145276D01*
Y-168898D02*
X58071D01*
Y-145276D01*
X109095Y-168819D02*
Y-145196D01*
X78307Y-168819D02*
Y-145196D01*
X109095D01*
X78307Y-168819D02*
X109095D01*
X49803Y-28937D02*
Y-18307D01*
X56496Y-28937D02*
Y-18307D01*
X49803Y-28937D02*
X56496D01*
X49803Y-18307D02*
X56496D01*
X39370Y-16732D02*
X47244D01*
X39370Y-30512D02*
X47244D01*
Y-16732D01*
X39370Y-30512D02*
Y-16732D01*
X58858Y-11835D02*
Y13953D01*
X28071Y-11835D02*
X58858D01*
X28071D02*
Y13953D01*
X58858D01*
X28543Y-28740D02*
X38386D01*
X28543Y-46063D02*
X38386D01*
Y-28740D01*
X28543Y-46063D02*
Y-28740D01*
X30276Y-26969D02*
Y-16339D01*
X36968Y-26969D02*
Y-16339D01*
X30276Y-26969D02*
X36968D01*
X30276Y-16339D02*
X36968D01*
X41339Y-52165D02*
X49213D01*
X41339Y-38386D02*
X49213D01*
X41339Y-52165D02*
Y-38386D01*
X49213Y-52165D02*
Y-38386D01*
X117677Y-144193D02*
X178465D01*
X117677Y-169980D02*
X178465D01*
X117677D02*
Y-144193D01*
X178465Y-169980D02*
Y-144193D01*
X171063Y-87402D02*
Y-62205D01*
X130118Y-87402D02*
Y-62205D01*
Y-87402D02*
X171063D01*
X130118Y-62205D02*
X171063D01*
X136811Y-103347D02*
X144685D01*
X136811Y-89567D02*
X144685D01*
X136811Y-103347D02*
Y-89567D01*
X144685Y-103347D02*
Y-89567D01*
X145669Y-103347D02*
X153543D01*
X145669Y-89567D02*
X153543D01*
X145669Y-103347D02*
Y-89567D01*
X153543Y-103347D02*
Y-89567D01*
X70866Y-136024D02*
Y-125394D01*
X64173Y-136024D02*
Y-125394D01*
X70866D01*
X64173Y-136024D02*
X70866D01*
X176969Y-134843D02*
Y-103347D01*
X149803Y-134843D02*
Y-103347D01*
X176969D01*
X149803Y-134843D02*
X176969D01*
X46260Y-122047D02*
X54134D01*
X46260Y-135827D02*
X54134D01*
Y-122047D01*
X46260Y-135827D02*
Y-122047D01*
X55118D02*
X62992D01*
X55118Y-135827D02*
X62992D01*
Y-122047D01*
X55118Y-135827D02*
Y-122047D01*
X22835Y-135236D02*
X32677D01*
X22835Y-117913D02*
X32677D01*
X22835Y-135236D02*
Y-117913D01*
X32677Y-135236D02*
Y-117913D01*
X176181Y-101181D02*
Y-93701D01*
X160433Y-101181D02*
Y-93701D01*
Y-101181D02*
X176181D01*
X160433Y-93701D02*
X176181D01*
X183071Y-134547D02*
X187008D01*
X183071D02*
Y-125689D01*
X187008D01*
Y-134547D02*
Y-125689D01*
X33661Y-117913D02*
X43504D01*
X33661Y-135236D02*
X43504D01*
Y-117913D01*
X33661Y-135236D02*
Y-117913D01*
X180118Y-104527D02*
X189961D01*
X180118Y-121850D02*
X189961D01*
Y-104527D01*
X180118Y-121850D02*
Y-104527D01*
X12008Y-117913D02*
X21850D01*
X12008Y-135236D02*
X21850D01*
Y-117913D01*
X12008Y-135236D02*
Y-117913D01*
X-2992Y-122441D02*
X9291D01*
X-2992Y-134646D02*
X9291D01*
Y-122441D01*
X-2992Y-134646D02*
Y-122441D01*
X68543Y-28740D02*
X78386D01*
X68543Y-46063D02*
X78386D01*
Y-28740D01*
X68543Y-46063D02*
Y-28740D01*
X107283D02*
X117126D01*
X107283Y-46063D02*
X117126D01*
Y-28740D01*
X107283Y-46063D02*
Y-28740D01*
X146653D02*
X156496D01*
X146653Y-46063D02*
X156496D01*
Y-28740D01*
X146653Y-46063D02*
Y-28740D01*
X98858Y-11835D02*
Y13953D01*
X68071Y-11835D02*
X98858D01*
X68071D02*
Y13953D01*
X98858D01*
X138858Y-11835D02*
Y13953D01*
X108071Y-11835D02*
X138858D01*
X108071D02*
Y13953D01*
X138858D01*
X178858Y-11835D02*
Y13953D01*
X148071Y-11835D02*
X178858D01*
X148071D02*
Y13953D01*
X178858D01*
X70276Y-26969D02*
Y-16339D01*
X76968Y-26969D02*
Y-16339D01*
X70276Y-26969D02*
X76968D01*
X70276Y-16339D02*
X76968D01*
X110827Y-26969D02*
Y-16339D01*
X117520Y-26969D02*
Y-16339D01*
X110827Y-26969D02*
X117520D01*
X110827Y-16339D02*
X117520D01*
X150276Y-26969D02*
Y-16339D01*
X156968Y-26969D02*
Y-16339D01*
X150276Y-26969D02*
X156968D01*
X150276Y-16339D02*
X156968D01*
X90354Y-27972D02*
Y-17343D01*
X97047Y-27972D02*
Y-17343D01*
X90354Y-27972D02*
X97047D01*
X90354Y-17343D02*
X97047D01*
X130118Y-27972D02*
Y-17343D01*
X136811Y-27972D02*
Y-17343D01*
X130118Y-27972D02*
X136811D01*
X130118Y-17343D02*
X136811D01*
X169724Y-27972D02*
Y-17343D01*
X176417Y-27972D02*
Y-17343D01*
X169724Y-27972D02*
X176417D01*
X169724Y-17343D02*
X176417D01*
X80709Y-52165D02*
X88583D01*
X80709Y-38386D02*
X88583D01*
X80709Y-52165D02*
Y-38386D01*
X88583Y-52165D02*
Y-38386D01*
X119527Y-52165D02*
X127402D01*
X119527Y-38386D02*
X127402D01*
X119527Y-52165D02*
Y-38386D01*
X127402Y-52165D02*
Y-38386D01*
X159449Y-52165D02*
X167323D01*
X159449Y-38386D02*
X167323D01*
X159449Y-52165D02*
Y-38386D01*
X167323Y-52165D02*
Y-38386D01*
X79528Y-15728D02*
X87402D01*
X79528Y-29508D02*
X87402D01*
Y-15728D01*
X79528Y-29508D02*
Y-15728D01*
X119685Y-16732D02*
X127559D01*
X119685Y-30512D02*
X127559D01*
Y-16732D01*
X119685Y-30512D02*
Y-16732D01*
X159449D02*
X167323D01*
X159449Y-30512D02*
X167323D01*
Y-16732D01*
X159449Y-30512D02*
Y-16732D01*
M02*
