G04*
G04 #@! TF.GenerationSoftware,Altium Limited,Altium Designer,18.1.7 (191)*
G04*
G04 Layer_Physical_Order=1*
G04 Layer_Color=255*
%FSLAX25Y25*%
%MOIN*%
G70*
G01*
G75*
%ADD15R,0.05472X0.03898*%
%ADD16R,0.05709X0.04528*%
%ADD17R,0.05906X0.04921*%
%ADD18O,0.09843X0.02756*%
%ADD19R,0.12402X0.04331*%
%ADD20R,0.03543X0.04331*%
%ADD21R,0.03740X0.06693*%
%ADD22R,0.03150X0.02362*%
%ADD23R,0.03150X0.03543*%
%ADD41C,0.01000*%
%ADD42C,0.03937*%
%ADD43C,0.21654*%
%ADD44R,0.06693X0.06693*%
%ADD45C,0.06693*%
%ADD46C,0.06102*%
%ADD47R,0.06102X0.06102*%
%ADD48R,0.05512X0.05512*%
%ADD49C,0.05512*%
%ADD50C,0.05000*%
G36*
X216535Y-177165D02*
X-19685D01*
Y19685D01*
X216535D01*
Y-177165D01*
D02*
G37*
%LPC*%
G36*
X163465Y4931D02*
X162462Y4799D01*
X161529Y4412D01*
X160727Y3797D01*
X160112Y2995D01*
X159725Y2061D01*
X159593Y1059D01*
X159725Y57D01*
X159983Y-566D01*
X157803Y-2746D01*
X157303Y-2539D01*
X157303Y-2379D01*
Y4898D01*
X149626D01*
Y-2780D01*
X156890D01*
X157062Y-2780D01*
X157270Y-3280D01*
X152694Y-7855D01*
X152409Y-8281D01*
X152309Y-8783D01*
Y-15945D01*
X150098D01*
Y-21390D01*
X150098Y-21417D01*
Y-21890D01*
X150098Y-21917D01*
Y-27362D01*
X152309D01*
Y-30020D01*
X147835D01*
Y-36516D01*
X155315D01*
Y-30020D01*
X154935D01*
Y-27362D01*
X157146D01*
Y-21917D01*
X157146Y-21890D01*
Y-21417D01*
X157146Y-21390D01*
Y-15945D01*
X154935D01*
Y-9327D01*
X161839Y-2423D01*
X162462Y-2681D01*
X163465Y-2813D01*
X164467Y-2681D01*
X165400Y-2294D01*
X166202Y-1679D01*
X166818Y-877D01*
X167204Y57D01*
X167336Y1059D01*
X167204Y2061D01*
X166818Y2995D01*
X166202Y3797D01*
X165400Y4412D01*
X164467Y4799D01*
X163465Y4931D01*
D02*
G37*
G36*
X83465D02*
X82463Y4799D01*
X81529Y4412D01*
X80727Y3797D01*
X80112Y2995D01*
X79725Y2061D01*
X79593Y1059D01*
X79725Y57D01*
X79983Y-566D01*
X77803Y-2746D01*
X77303Y-2539D01*
X77303Y-2379D01*
Y4898D01*
X69626D01*
Y-2780D01*
X76890D01*
X77062Y-2780D01*
X77270Y-3280D01*
X72694Y-7855D01*
X72409Y-8281D01*
X72309Y-8783D01*
Y-15945D01*
X70098D01*
Y-21390D01*
X70098Y-21417D01*
Y-21890D01*
X70098Y-21917D01*
Y-27362D01*
X72309D01*
Y-30020D01*
X69724D01*
Y-36516D01*
X77205D01*
Y-30020D01*
X74935D01*
Y-27362D01*
X77146D01*
Y-21917D01*
X77146Y-21890D01*
Y-21417D01*
X77146Y-21390D01*
Y-15945D01*
X74935D01*
Y-9327D01*
X81839Y-2423D01*
X82463Y-2681D01*
X83465Y-2813D01*
X84467Y-2681D01*
X85400Y-2294D01*
X86202Y-1679D01*
X86818Y-877D01*
X87204Y57D01*
X87336Y1059D01*
X87204Y2061D01*
X86818Y2995D01*
X86202Y3797D01*
X85400Y4412D01*
X84467Y4799D01*
X83465Y4931D01*
D02*
G37*
G36*
X123465D02*
X122462Y4799D01*
X121529Y4412D01*
X120727Y3797D01*
X120112Y2995D01*
X119725Y2061D01*
X119593Y1059D01*
X119725Y57D01*
X119983Y-566D01*
X117803Y-2746D01*
X117303Y-2539D01*
X117303Y-2379D01*
Y4898D01*
X109626D01*
Y-2780D01*
X116891D01*
X117063Y-2780D01*
X117270Y-3280D01*
X113245Y-7304D01*
X112961Y-7730D01*
X112861Y-8232D01*
Y-15945D01*
X110650D01*
Y-21390D01*
X110650Y-21417D01*
Y-21890D01*
X110650Y-21917D01*
Y-27362D01*
X110892D01*
Y-30020D01*
X108465D01*
Y-36516D01*
X115945D01*
Y-30020D01*
X113517D01*
Y-27362D01*
X117697D01*
Y-21917D01*
X117697Y-21890D01*
Y-21417D01*
X117697Y-21390D01*
Y-15945D01*
X115486D01*
Y-8776D01*
X121839Y-2423D01*
X122462Y-2681D01*
X123465Y-2813D01*
X124467Y-2681D01*
X125400Y-2294D01*
X126202Y-1679D01*
X126818Y-877D01*
X127204Y57D01*
X127336Y1059D01*
X127204Y2061D01*
X126818Y2995D01*
X126202Y3797D01*
X125400Y4412D01*
X124467Y4799D01*
X123465Y4931D01*
D02*
G37*
G36*
X37303Y4898D02*
X29626D01*
Y-2780D01*
X37303D01*
Y4898D01*
D02*
G37*
G36*
X0Y11650D02*
X-1822Y11507D01*
X-3600Y11080D01*
X-5289Y10380D01*
X-6848Y9425D01*
X-8238Y8238D01*
X-9425Y6848D01*
X-10380Y5289D01*
X-11080Y3600D01*
X-11507Y1822D01*
X-11650Y0D01*
X-11507Y-1822D01*
X-11080Y-3600D01*
X-10380Y-5289D01*
X-9425Y-6848D01*
X-8238Y-8238D01*
X-6848Y-9425D01*
X-5289Y-10380D01*
X-3600Y-11080D01*
X-1822Y-11507D01*
X0Y-11650D01*
X1822Y-11507D01*
X3600Y-11080D01*
X5289Y-10380D01*
X6848Y-9425D01*
X8238Y-8238D01*
X9425Y-6848D01*
X10380Y-5289D01*
X11080Y-3600D01*
X11507Y-1822D01*
X11650Y0D01*
X11507Y1822D01*
X11080Y3600D01*
X10380Y5289D01*
X9425Y6848D01*
X8238Y8238D01*
X6848Y9425D01*
X5289Y10380D01*
X3600Y11080D01*
X1822Y11507D01*
X0Y11650D01*
D02*
G37*
G36*
X196850Y9682D02*
X195028Y9538D01*
X193250Y9111D01*
X191561Y8412D01*
X190003Y7457D01*
X188613Y6269D01*
X187425Y4879D01*
X186470Y3320D01*
X185770Y1632D01*
X185344Y-146D01*
X185200Y-1969D01*
X185344Y-3791D01*
X185770Y-5569D01*
X186470Y-7258D01*
X187425Y-8816D01*
X188613Y-10206D01*
X190003Y-11394D01*
X191561Y-12349D01*
X193250Y-13048D01*
X195028Y-13475D01*
X196850Y-13619D01*
X198673Y-13475D01*
X200450Y-13048D01*
X202139Y-12349D01*
X203698Y-11394D01*
X205088Y-10206D01*
X206276Y-8816D01*
X207231Y-7258D01*
X207930Y-5569D01*
X208357Y-3791D01*
X208501Y-1969D01*
X208357Y-146D01*
X207930Y1632D01*
X207231Y3320D01*
X206276Y4879D01*
X205088Y6269D01*
X203698Y7457D01*
X202139Y8412D01*
X200450Y9111D01*
X198673Y9538D01*
X196850Y9682D01*
D02*
G37*
G36*
X173465Y4931D02*
X172462Y4799D01*
X171529Y4412D01*
X170727Y3797D01*
X170112Y2995D01*
X169725Y2061D01*
X169593Y1059D01*
X169725Y57D01*
X170112Y-877D01*
X170727Y-1679D01*
X171529Y-2294D01*
X171758Y-2389D01*
Y-16949D01*
X169547D01*
Y-18372D01*
X167028D01*
Y-17028D01*
X159744D01*
Y-23130D01*
X167028D01*
Y-20998D01*
X169547D01*
Y-22394D01*
X169547Y-22421D01*
Y-22894D01*
X169547Y-22921D01*
Y-28366D01*
X172741D01*
X173071Y-28410D01*
X177356D01*
X177476Y-28501D01*
X178276Y-28833D01*
X178425Y-28852D01*
X180626Y-31053D01*
Y-94567D01*
X180126Y-94814D01*
X179807Y-94569D01*
X179008Y-94238D01*
X178150Y-94125D01*
X177291Y-94238D01*
X176976Y-94369D01*
X176476Y-94035D01*
Y-93307D01*
X171161D01*
Y-96655D01*
X171134Y-96722D01*
X171039Y-97441D01*
X171134Y-98160D01*
X171161Y-98227D01*
Y-101575D01*
X176476D01*
Y-100847D01*
X176976Y-100513D01*
X177291Y-100644D01*
X177689Y-100696D01*
X177868Y-101224D01*
X175967Y-103126D01*
X170374D01*
Y-102953D01*
X165575D01*
Y-97441D01*
X165480Y-96722D01*
X165453Y-96655D01*
Y-93307D01*
X160138D01*
Y-96655D01*
X160110Y-96722D01*
X160016Y-97441D01*
Y-102953D01*
X156398D01*
Y-108441D01*
X150568D01*
X150469Y-107941D01*
X150996Y-107722D01*
X151572Y-107281D01*
X152014Y-106705D01*
X152114Y-106463D01*
X152478Y-105989D01*
X152809Y-105189D01*
X152922Y-104331D01*
X152819Y-103551D01*
X152925Y-103290D01*
X153085Y-103051D01*
X153248D01*
Y-96949D01*
X145965D01*
Y-103051D01*
X146128D01*
X146288Y-103290D01*
X146393Y-103551D01*
X146291Y-104331D01*
X146404Y-105189D01*
X146735Y-105989D01*
X147099Y-106463D01*
X147199Y-106705D01*
X147641Y-107281D01*
X148216Y-107722D01*
X148744Y-107941D01*
X148645Y-108441D01*
X136978D01*
X134669Y-106132D01*
Y-101181D01*
X135413D01*
X135413Y-95709D01*
X135907Y-95693D01*
X137106D01*
Y-95965D01*
X144390D01*
Y-95693D01*
X145965D01*
Y-95965D01*
X153248D01*
Y-89862D01*
X152386D01*
Y-88583D01*
X152291Y-87863D01*
X152014Y-87193D01*
X151572Y-86617D01*
X147434Y-82480D01*
X147708Y-82047D01*
X148496Y-81943D01*
X148841Y-81800D01*
X150273Y-83231D01*
X150698Y-83516D01*
X151201Y-83616D01*
X158903D01*
X159069Y-83864D01*
X159785Y-84343D01*
X160630Y-84511D01*
X167717D01*
X168561Y-84343D01*
X169278Y-83864D01*
X169444Y-83616D01*
X169665D01*
X170168Y-83516D01*
X170594Y-83231D01*
X177412Y-76412D01*
X177697Y-75986D01*
X177797Y-75484D01*
Y-49516D01*
X177697Y-49013D01*
X177412Y-48588D01*
X169629Y-40804D01*
X169203Y-40520D01*
X168701Y-40420D01*
X167027D01*
Y-38681D01*
X159744D01*
Y-40223D01*
X155315D01*
Y-38287D01*
X147835D01*
Y-44783D01*
X155315D01*
Y-42848D01*
X159744D01*
Y-44783D01*
X167027D01*
Y-43045D01*
X168157D01*
X175172Y-50059D01*
Y-64428D01*
X174672Y-64675D01*
X174355Y-64432D01*
X173555Y-64100D01*
X172697Y-63987D01*
X171839Y-64100D01*
X171039Y-64432D01*
X170919Y-64524D01*
X164173D01*
X163454Y-64618D01*
X162783Y-64896D01*
X162523Y-65095D01*
X160630D01*
X159785Y-65263D01*
X159069Y-65742D01*
X158590Y-66458D01*
X158422Y-67303D01*
X158590Y-68148D01*
X159069Y-68864D01*
X159785Y-69343D01*
X160630Y-69511D01*
X162134D01*
X162195Y-69595D01*
X161938Y-70095D01*
X160630D01*
X159785Y-70263D01*
X159069Y-70742D01*
X158529Y-70649D01*
X128684Y-40804D01*
X128258Y-40520D01*
X127756Y-40420D01*
X127106D01*
Y-38681D01*
X119823D01*
Y-40420D01*
X115945D01*
Y-38287D01*
X108465D01*
Y-44783D01*
X115945D01*
Y-43045D01*
X119823D01*
Y-44783D01*
X127106D01*
Y-43646D01*
X127606Y-43439D01*
X157399Y-73231D01*
X157825Y-73516D01*
X158327Y-73616D01*
X158903D01*
X159069Y-73864D01*
X159785Y-74343D01*
X160630Y-74511D01*
X167717D01*
X168561Y-74343D01*
X169278Y-73864D01*
X169756Y-73148D01*
X169924Y-72303D01*
X169756Y-71458D01*
X169278Y-70742D01*
X169039Y-70583D01*
X169191Y-70083D01*
X170919D01*
X171039Y-70175D01*
X171839Y-70506D01*
X172697Y-70619D01*
X173555Y-70506D01*
X174355Y-70175D01*
X174672Y-69932D01*
X175172Y-70178D01*
Y-74941D01*
X169362Y-80750D01*
X169278Y-80742D01*
X168561Y-80263D01*
X167717Y-80095D01*
X160630D01*
X159785Y-80263D01*
X159069Y-80742D01*
X158903Y-80990D01*
X151744D01*
X150698Y-79944D01*
X150841Y-79598D01*
X150954Y-78740D01*
X150841Y-77882D01*
X150509Y-77082D01*
X149982Y-76396D01*
X149296Y-75869D01*
X148496Y-75537D01*
X147638Y-75424D01*
X146780Y-75537D01*
X145980Y-75869D01*
X145293Y-76396D01*
X144766Y-77082D01*
X144435Y-77882D01*
X144322Y-78740D01*
X144385Y-79217D01*
X144235Y-79394D01*
X143931Y-79603D01*
X143327Y-79523D01*
X142026D01*
X141874Y-79023D01*
X142112Y-78864D01*
X142591Y-78148D01*
X142759Y-77303D01*
X142591Y-76458D01*
X142112Y-75742D01*
X141396Y-75263D01*
X140551Y-75095D01*
X133465D01*
X132620Y-75263D01*
X132103Y-75609D01*
X123588D01*
X123462Y-75109D01*
X123934Y-74493D01*
X124266Y-73693D01*
X124276Y-73616D01*
X131737D01*
X131903Y-73864D01*
X132620Y-74343D01*
X133465Y-74511D01*
X140551D01*
X141396Y-74343D01*
X142112Y-73864D01*
X142591Y-73148D01*
X142759Y-72303D01*
X142591Y-71458D01*
X142112Y-70742D01*
X141396Y-70263D01*
X140551Y-70095D01*
X133465D01*
X132620Y-70263D01*
X131903Y-70742D01*
X131737Y-70991D01*
X129625D01*
X129524Y-70780D01*
X129490Y-70490D01*
X130101Y-70022D01*
X130627Y-69335D01*
X130925Y-68616D01*
X131737D01*
X131903Y-68864D01*
X132620Y-69343D01*
X133465Y-69511D01*
X140551D01*
X141396Y-69343D01*
X142112Y-68864D01*
X142591Y-68148D01*
X142759Y-67303D01*
X142591Y-66458D01*
X142112Y-65742D01*
X141396Y-65263D01*
X140551Y-65095D01*
X133465D01*
X132620Y-65263D01*
X131903Y-65742D01*
X131737Y-65991D01*
X130605D01*
X130101Y-65333D01*
X129414Y-64806D01*
X128614Y-64474D01*
X127756Y-64361D01*
X126898Y-64474D01*
X126098Y-64806D01*
X125411Y-65333D01*
X124884Y-66019D01*
X124553Y-66819D01*
X124440Y-67677D01*
X124553Y-68535D01*
X124884Y-69335D01*
X125411Y-70022D01*
X126022Y-70490D01*
X125987Y-70780D01*
X125887Y-70991D01*
X123792D01*
X123408Y-70490D01*
X122721Y-69963D01*
X121921Y-69632D01*
X121063Y-69519D01*
X120205Y-69632D01*
X119405Y-69963D01*
X118718Y-70490D01*
X118192Y-71177D01*
X117860Y-71977D01*
X117747Y-72835D01*
X117860Y-73693D01*
X118064Y-74185D01*
X117710Y-74624D01*
X114573D01*
X114071Y-74724D01*
X113645Y-75009D01*
X112971Y-75682D01*
X100338Y-63048D01*
X99912Y-62764D01*
X99410Y-62664D01*
X68063D01*
X48917Y-43518D01*
Y-38681D01*
X41634D01*
Y-40420D01*
X37205D01*
Y-38287D01*
X29724D01*
Y-44783D01*
X37205D01*
Y-43045D01*
X41634D01*
Y-44783D01*
X46470D01*
X46993Y-45306D01*
X46801Y-45768D01*
X41634D01*
Y-51870D01*
X41797D01*
X41957Y-52109D01*
X42062Y-52370D01*
X41960Y-53150D01*
X42073Y-54008D01*
X42404Y-54808D01*
X42931Y-55494D01*
X43618Y-56021D01*
X44417Y-56352D01*
X45276Y-56465D01*
X46134Y-56352D01*
X46933Y-56021D01*
X47620Y-55494D01*
X48147Y-54808D01*
X48478Y-54008D01*
X48591Y-53150D01*
X48489Y-52370D01*
X48594Y-52109D01*
X48754Y-51870D01*
X48917D01*
Y-47884D01*
X49379Y-47692D01*
X66592Y-64904D01*
X67017Y-65189D01*
X67520Y-65289D01*
X71571D01*
X71763Y-65751D01*
X18321Y-119193D01*
X13189D01*
Y-125689D01*
X20669D01*
Y-120557D01*
X74150Y-67076D01*
X80611D01*
X80802Y-67538D01*
X29148Y-119193D01*
X24016D01*
Y-125689D01*
X31496D01*
Y-120557D01*
X83063Y-68990D01*
X92754D01*
X93192Y-69490D01*
X93141Y-69882D01*
X93254Y-70740D01*
X93585Y-71540D01*
X94112Y-72227D01*
X94799Y-72753D01*
X95599Y-73085D01*
X96457Y-73198D01*
X97315Y-73085D01*
X98115Y-72753D01*
X98801Y-72227D01*
X99328Y-71540D01*
X99660Y-70740D01*
X99714Y-70328D01*
X100242Y-70149D01*
X105974Y-75882D01*
X105942Y-76381D01*
X105923Y-76395D01*
X105396Y-77082D01*
X105065Y-77882D01*
X104952Y-78740D01*
X105065Y-79598D01*
X105396Y-80398D01*
X105923Y-81085D01*
X106610Y-81612D01*
X107409Y-81943D01*
X108267Y-82056D01*
X109126Y-81943D01*
X109925Y-81612D01*
X110542Y-81139D01*
X111042Y-81264D01*
Y-84089D01*
X110542Y-84215D01*
X109926Y-83743D01*
X109126Y-83411D01*
X108268Y-83298D01*
X107410Y-83411D01*
X106610Y-83743D01*
X105923Y-84270D01*
X105396Y-84956D01*
X105065Y-85756D01*
X104952Y-86614D01*
X105065Y-87472D01*
X105396Y-88272D01*
X105923Y-88959D01*
X106610Y-89486D01*
X107410Y-89817D01*
X108268Y-89930D01*
X108754Y-89866D01*
X109254Y-90276D01*
Y-109158D01*
X109354Y-109660D01*
X109639Y-110086D01*
X131758Y-132205D01*
Y-153475D01*
X131135Y-153734D01*
X130333Y-154349D01*
X129718Y-155151D01*
X129331Y-156085D01*
X129199Y-157087D01*
X129331Y-158089D01*
X129718Y-159022D01*
X130333Y-159824D01*
X131135Y-160440D01*
X132069Y-160826D01*
X133071Y-160958D01*
X134073Y-160826D01*
X135007Y-160440D01*
X135809Y-159824D01*
X136424Y-159022D01*
X136811Y-158089D01*
X136943Y-157087D01*
X136811Y-156085D01*
X136424Y-155151D01*
X135809Y-154349D01*
X135007Y-153734D01*
X134383Y-153475D01*
Y-132956D01*
X134845Y-132765D01*
X141758Y-139678D01*
Y-153475D01*
X141135Y-153734D01*
X140333Y-154349D01*
X139718Y-155151D01*
X139331Y-156085D01*
X139199Y-157087D01*
X139331Y-158089D01*
X139718Y-159022D01*
X140333Y-159824D01*
X141135Y-160440D01*
X142069Y-160826D01*
X143071Y-160958D01*
X144073Y-160826D01*
X145007Y-160440D01*
X145809Y-159824D01*
X146424Y-159022D01*
X146811Y-158089D01*
X146943Y-157087D01*
X146811Y-156085D01*
X146424Y-155151D01*
X145809Y-154349D01*
X145007Y-153734D01*
X144384Y-153475D01*
Y-139604D01*
X144884Y-139397D01*
X151758Y-146272D01*
Y-153475D01*
X151135Y-153734D01*
X150333Y-154349D01*
X149718Y-155151D01*
X149331Y-156085D01*
X149199Y-157087D01*
X149331Y-158089D01*
X149718Y-159022D01*
X150333Y-159824D01*
X151135Y-160440D01*
X152069Y-160826D01*
X153071Y-160958D01*
X154073Y-160826D01*
X155007Y-160440D01*
X155809Y-159824D01*
X156424Y-159022D01*
X156811Y-158089D01*
X156943Y-157087D01*
X156811Y-156085D01*
X156424Y-155151D01*
X155809Y-154349D01*
X155007Y-153734D01*
X154384Y-153475D01*
Y-147023D01*
X154845Y-146832D01*
X161250Y-153236D01*
X161181Y-153582D01*
X161082Y-153775D01*
X160333Y-154349D01*
X159718Y-155151D01*
X159331Y-156085D01*
X159199Y-157087D01*
X159331Y-158089D01*
X159718Y-159022D01*
X160333Y-159824D01*
X161135Y-160440D01*
X162069Y-160826D01*
X163071Y-160958D01*
X164073Y-160826D01*
X165007Y-160440D01*
X165809Y-159824D01*
X166424Y-159022D01*
X166811Y-158089D01*
X166943Y-157087D01*
X166811Y-156085D01*
X166424Y-155151D01*
X165809Y-154349D01*
X165007Y-153734D01*
X164383Y-153475D01*
Y-153201D01*
X164284Y-152698D01*
X163999Y-152272D01*
X118257Y-106531D01*
Y-86355D01*
X120844Y-83768D01*
X121189Y-83912D01*
X122047Y-84024D01*
X122905Y-83912D01*
X123705Y-83580D01*
X124392Y-83053D01*
X124919Y-82367D01*
X125250Y-81567D01*
X125363Y-80709D01*
X125250Y-79851D01*
X124919Y-79051D01*
X124676Y-78734D01*
X124922Y-78234D01*
X131482D01*
X131903Y-78864D01*
X132620Y-79343D01*
X133465Y-79511D01*
X134772D01*
X135029Y-80011D01*
X134969Y-80095D01*
X133465D01*
X132620Y-80263D01*
X131903Y-80742D01*
X131425Y-81458D01*
X131257Y-82303D01*
X131425Y-83148D01*
X131903Y-83864D01*
X132620Y-84343D01*
X133465Y-84511D01*
X135358D01*
X135618Y-84710D01*
X136288Y-84988D01*
X137008Y-85083D01*
X142175D01*
X146455Y-89362D01*
X146248Y-89862D01*
X145965D01*
Y-90134D01*
X144390D01*
Y-89862D01*
X137106D01*
Y-90134D01*
X135413D01*
Y-89764D01*
X132220D01*
X131890Y-89720D01*
X131560Y-89764D01*
X128366D01*
Y-95209D01*
X128366Y-95236D01*
Y-95709D01*
X128366Y-95736D01*
Y-101181D01*
X129110D01*
Y-107283D01*
X129205Y-108003D01*
X129482Y-108673D01*
X129924Y-109249D01*
X133861Y-113186D01*
X134437Y-113628D01*
X135107Y-113905D01*
X135827Y-114000D01*
X160606D01*
Y-132283D01*
Y-137598D01*
X160701Y-138318D01*
X160979Y-138988D01*
X161420Y-139564D01*
X170291Y-148435D01*
Y-154404D01*
X169718Y-155151D01*
X169331Y-156085D01*
X169199Y-157087D01*
X169331Y-158089D01*
X169718Y-159022D01*
X170333Y-159824D01*
X171135Y-160440D01*
X172069Y-160826D01*
X173071Y-160958D01*
X174073Y-160826D01*
X175007Y-160440D01*
X175809Y-159824D01*
X176424Y-159022D01*
X176811Y-158089D01*
X176943Y-157087D01*
X176811Y-156085D01*
X176424Y-155151D01*
X175851Y-154404D01*
Y-147283D01*
X175756Y-146564D01*
X175478Y-145894D01*
X175036Y-145318D01*
X166165Y-136447D01*
Y-132283D01*
Y-109646D01*
X166128Y-109358D01*
X166565Y-108858D01*
X170374D01*
Y-108685D01*
X177118D01*
X177837Y-108590D01*
X178508Y-108313D01*
X179084Y-107871D01*
X180799Y-106155D01*
X181299Y-106362D01*
Y-112303D01*
X188779D01*
Y-108249D01*
X188803Y-108071D01*
Y-107092D01*
X188895Y-106973D01*
X189226Y-106173D01*
X189339Y-105315D01*
X189226Y-104457D01*
X188895Y-103657D01*
X188368Y-102970D01*
X187681Y-102443D01*
X186881Y-102112D01*
X186023Y-101999D01*
X185608Y-102054D01*
X185375Y-101592D01*
X185374Y-101580D01*
X185813Y-101008D01*
X186091Y-100337D01*
X186185Y-99618D01*
Y-29902D01*
X186091Y-29182D01*
X185813Y-28512D01*
X185371Y-27936D01*
X182356Y-24921D01*
X182337Y-24772D01*
X182005Y-23972D01*
X181479Y-23285D01*
X180792Y-22758D01*
X179992Y-22427D01*
X179134Y-22314D01*
X178276Y-22427D01*
X177476Y-22758D01*
X177356Y-22850D01*
X176766D01*
X176594Y-22421D01*
X176594Y-22350D01*
Y-16949D01*
X174383D01*
Y-2692D01*
X174467Y-2681D01*
X175400Y-2294D01*
X176202Y-1679D01*
X176818Y-877D01*
X177204Y57D01*
X177336Y1059D01*
X177204Y2061D01*
X176818Y2995D01*
X176202Y3797D01*
X175400Y4412D01*
X174467Y4799D01*
X173465Y4931D01*
D02*
G37*
G36*
X133465D02*
X132463Y4799D01*
X131529Y4412D01*
X130727Y3797D01*
X130112Y2995D01*
X129725Y2061D01*
X129593Y1059D01*
X129725Y57D01*
X130112Y-877D01*
X130727Y-1679D01*
X131529Y-2294D01*
X132152Y-2552D01*
Y-16949D01*
X129941D01*
Y-18372D01*
X127264D01*
Y-17028D01*
X119980D01*
Y-23130D01*
X127264D01*
Y-20998D01*
X129941D01*
Y-22394D01*
X129941Y-22421D01*
Y-22894D01*
X129941Y-22921D01*
Y-28366D01*
X133134D01*
X133465Y-28410D01*
X138038D01*
X138106Y-28462D01*
X138906Y-28793D01*
X139764Y-28906D01*
X140622Y-28793D01*
X141422Y-28462D01*
X142108Y-27935D01*
X142635Y-27248D01*
X142967Y-26449D01*
X143079Y-25591D01*
X142967Y-24732D01*
X142635Y-23933D01*
X142108Y-23246D01*
X141422Y-22719D01*
X140622Y-22388D01*
X139764Y-22275D01*
X138906Y-22388D01*
X138106Y-22719D01*
X137935Y-22850D01*
X137160D01*
X136988Y-22421D01*
X136988Y-22350D01*
Y-16949D01*
X134777D01*
Y-2552D01*
X135400Y-2294D01*
X136202Y-1679D01*
X136818Y-877D01*
X137204Y57D01*
X137336Y1059D01*
X137204Y2061D01*
X136818Y2995D01*
X136202Y3797D01*
X135400Y4412D01*
X134467Y4799D01*
X133465Y4931D01*
D02*
G37*
G36*
X93465D02*
X92462Y4799D01*
X91529Y4412D01*
X90727Y3797D01*
X90112Y2995D01*
X89725Y2061D01*
X89593Y1059D01*
X89725Y57D01*
X90112Y-877D01*
X90727Y-1679D01*
X91529Y-2294D01*
X92152Y-2552D01*
Y-16949D01*
X90177D01*
Y-18372D01*
X87106D01*
Y-16024D01*
X79823D01*
Y-22126D01*
X87106D01*
Y-20998D01*
X90177D01*
Y-22394D01*
X90177Y-22421D01*
Y-22894D01*
X90177Y-22921D01*
Y-28366D01*
X93371D01*
X93701Y-28410D01*
X98577D01*
X98697Y-28501D01*
X99496Y-28833D01*
X100354Y-28946D01*
X101213Y-28833D01*
X102012Y-28501D01*
X102699Y-27975D01*
X103226Y-27288D01*
X103557Y-26488D01*
X103670Y-25630D01*
X103557Y-24772D01*
X103226Y-23972D01*
X102699Y-23285D01*
X102012Y-22758D01*
X101213Y-22427D01*
X100354Y-22314D01*
X99496Y-22427D01*
X98697Y-22758D01*
X98577Y-22850D01*
X97396D01*
X97224Y-22421D01*
X97224Y-22350D01*
Y-16949D01*
X94777D01*
Y-2552D01*
X95400Y-2294D01*
X96202Y-1679D01*
X96818Y-877D01*
X97204Y57D01*
X97336Y1059D01*
X97204Y2061D01*
X96818Y2995D01*
X96202Y3797D01*
X95400Y4412D01*
X94467Y4799D01*
X93465Y4931D01*
D02*
G37*
G36*
X53465D02*
X52463Y4799D01*
X51529Y4412D01*
X50727Y3797D01*
X50112Y2995D01*
X49725Y2061D01*
X49593Y1059D01*
X49725Y57D01*
X50112Y-877D01*
X50727Y-1679D01*
X51529Y-2294D01*
X51837Y-2422D01*
Y-17913D01*
X49626D01*
Y-18766D01*
X46949D01*
Y-17028D01*
X39665D01*
Y-23130D01*
X46949D01*
Y-21391D01*
X49626D01*
Y-23358D01*
X49626Y-23386D01*
Y-23858D01*
X49626Y-23886D01*
Y-29331D01*
X52820D01*
X53150Y-29374D01*
X58287D01*
X58381Y-29446D01*
X59181Y-29778D01*
X60039Y-29891D01*
X60898Y-29778D01*
X61697Y-29446D01*
X62384Y-28919D01*
X62911Y-28233D01*
X63242Y-27433D01*
X63355Y-26575D01*
X63242Y-25717D01*
X62911Y-24917D01*
X62384Y-24230D01*
X61697Y-23703D01*
X60898Y-23372D01*
X60039Y-23259D01*
X59181Y-23372D01*
X58381Y-23703D01*
X58236Y-23815D01*
X56845D01*
X56673Y-23386D01*
X56673Y-23315D01*
Y-17913D01*
X54462D01*
Y-2681D01*
X54467Y-2681D01*
X55400Y-2294D01*
X56202Y-1679D01*
X56818Y-877D01*
X57204Y57D01*
X57336Y1059D01*
X57204Y2061D01*
X56818Y2995D01*
X56202Y3797D01*
X55400Y4412D01*
X54467Y4799D01*
X53465Y4931D01*
D02*
G37*
G36*
X87106Y-23110D02*
X79823D01*
Y-29213D01*
X79847D01*
X80223Y-29713D01*
X80149Y-30276D01*
X80262Y-31134D01*
X80593Y-31934D01*
X81120Y-32620D01*
X81807Y-33147D01*
X82606Y-33478D01*
X83465Y-33591D01*
X84323Y-33478D01*
X85123Y-33147D01*
X85809Y-32620D01*
X86336Y-31934D01*
X86667Y-31134D01*
X86780Y-30276D01*
X86706Y-29713D01*
X87082Y-29213D01*
X87106D01*
Y-23110D01*
D02*
G37*
G36*
X127264Y-24114D02*
X119980D01*
Y-30217D01*
X120023D01*
X120353Y-30593D01*
X120306Y-30945D01*
X120419Y-31803D01*
X120750Y-32603D01*
X121277Y-33290D01*
X121964Y-33816D01*
X122764Y-34148D01*
X123622Y-34261D01*
X124480Y-34148D01*
X125280Y-33816D01*
X125967Y-33290D01*
X126494Y-32603D01*
X126825Y-31803D01*
X126938Y-30945D01*
X126891Y-30593D01*
X127221Y-30217D01*
X127264D01*
Y-24114D01*
D02*
G37*
G36*
X46949D02*
X39665D01*
Y-30217D01*
X39723D01*
X40073Y-30717D01*
X39991Y-31339D01*
X40104Y-32197D01*
X40436Y-32996D01*
X40962Y-33683D01*
X41649Y-34210D01*
X42449Y-34541D01*
X43307Y-34654D01*
X44165Y-34541D01*
X44965Y-34210D01*
X45652Y-33683D01*
X46179Y-32996D01*
X46510Y-32197D01*
X46623Y-31339D01*
X46541Y-30717D01*
X46891Y-30217D01*
X46949D01*
Y-24114D01*
D02*
G37*
G36*
X167028D02*
X159744D01*
Y-30217D01*
X159847D01*
X160162Y-30717D01*
X160070Y-31417D01*
X160183Y-32276D01*
X160514Y-33075D01*
X161041Y-33762D01*
X161728Y-34289D01*
X162528Y-34620D01*
X163386Y-34733D01*
X164244Y-34620D01*
X165044Y-34289D01*
X165730Y-33762D01*
X166257Y-33075D01*
X166589Y-32276D01*
X166702Y-31417D01*
X166609Y-30717D01*
X166924Y-30217D01*
X167028D01*
Y-24114D01*
D02*
G37*
G36*
X43465Y4931D02*
X42463Y4799D01*
X41529Y4412D01*
X40727Y3797D01*
X40112Y2995D01*
X39725Y2061D01*
X39593Y1059D01*
X39725Y57D01*
X40112Y-877D01*
X40727Y-1679D01*
X41529Y-2294D01*
X42152Y-2552D01*
Y-8295D01*
X34502Y-15945D01*
X30098D01*
Y-21390D01*
X30098Y-21417D01*
Y-21890D01*
X30098Y-21917D01*
Y-27362D01*
X32152D01*
Y-30020D01*
X29724D01*
Y-36516D01*
X37205D01*
Y-30020D01*
X34777D01*
Y-27362D01*
X37146D01*
Y-21917D01*
X37146Y-21890D01*
Y-21417D01*
X37146Y-21390D01*
Y-17014D01*
X44393Y-9767D01*
X44677Y-9341D01*
X44777Y-8839D01*
Y-2552D01*
X45400Y-2294D01*
X46202Y-1679D01*
X46818Y-877D01*
X47204Y57D01*
X47336Y1059D01*
X47204Y2061D01*
X46818Y2995D01*
X46202Y3797D01*
X45400Y4412D01*
X44467Y4799D01*
X43465Y4931D01*
D02*
G37*
G36*
X127106Y-45768D02*
X119823D01*
Y-51870D01*
X119823D01*
X120200Y-52370D01*
X120149Y-52756D01*
X120262Y-53614D01*
X120593Y-54414D01*
X121120Y-55101D01*
X121807Y-55628D01*
X122606Y-55959D01*
X123465Y-56072D01*
X124323Y-55959D01*
X125122Y-55628D01*
X125809Y-55101D01*
X126336Y-54414D01*
X126667Y-53614D01*
X126780Y-52756D01*
X126730Y-52370D01*
X127106Y-51870D01*
X127106D01*
Y-45768D01*
D02*
G37*
G36*
X167027D02*
X159744D01*
Y-51870D01*
X159847D01*
X160162Y-52370D01*
X160070Y-53071D01*
X160183Y-53929D01*
X160514Y-54729D01*
X161041Y-55415D01*
X161728Y-55942D01*
X162528Y-56274D01*
X163386Y-56387D01*
X164244Y-56274D01*
X165044Y-55942D01*
X165730Y-55415D01*
X166257Y-54729D01*
X166589Y-53929D01*
X166702Y-53071D01*
X166609Y-52370D01*
X166924Y-51870D01*
X167027D01*
Y-45768D01*
D02*
G37*
G36*
X88287D02*
X81004D01*
Y-51870D01*
X81167D01*
X81327Y-52109D01*
X81432Y-52370D01*
X81330Y-53150D01*
X81443Y-54008D01*
X81774Y-54808D01*
X82301Y-55494D01*
X82988Y-56021D01*
X83788Y-56352D01*
X84646Y-56465D01*
X85504Y-56352D01*
X86304Y-56021D01*
X86990Y-55494D01*
X87517Y-54808D01*
X87849Y-54008D01*
X87961Y-53150D01*
X87859Y-52370D01*
X87964Y-52109D01*
X88124Y-51870D01*
X88287D01*
Y-45768D01*
D02*
G37*
G36*
X102181Y-74984D02*
X98925D01*
Y-78240D01*
X102181D01*
Y-74984D01*
D02*
G37*
G36*
X97925D02*
X94669D01*
Y-78240D01*
X97925D01*
Y-74984D01*
D02*
G37*
G36*
X77205Y-38287D02*
X69724D01*
Y-44783D01*
X77205D01*
Y-42848D01*
X81004D01*
Y-44783D01*
X88287D01*
Y-42848D01*
X92724D01*
X109859Y-59983D01*
X110285Y-60268D01*
X110787Y-60368D01*
X138846D01*
X156710Y-78231D01*
X157135Y-78516D01*
X157638Y-78616D01*
X158903D01*
X159069Y-78864D01*
X159785Y-79343D01*
X160630Y-79511D01*
X167717D01*
X168561Y-79343D01*
X169278Y-78864D01*
X169756Y-78148D01*
X169924Y-77303D01*
X169756Y-76458D01*
X169278Y-75742D01*
X168561Y-75263D01*
X167717Y-75095D01*
X160630D01*
X159785Y-75263D01*
X159069Y-75742D01*
X158903Y-75990D01*
X158182D01*
X140318Y-58127D01*
X139892Y-57842D01*
X139390Y-57743D01*
X111331D01*
X94196Y-40607D01*
X93770Y-40323D01*
X93268Y-40223D01*
X88287D01*
Y-38681D01*
X81004D01*
Y-40223D01*
X77205D01*
Y-38287D01*
D02*
G37*
G36*
X102181Y-79240D02*
X98925D01*
Y-82496D01*
X102181D01*
Y-79240D01*
D02*
G37*
G36*
X97925D02*
X94669D01*
Y-82496D01*
X97925D01*
Y-79240D01*
D02*
G37*
G36*
X98425Y-94851D02*
X97500Y-94973D01*
X96638Y-95330D01*
X95898Y-95898D01*
X95330Y-96638D01*
X94973Y-97500D01*
X94851Y-98425D01*
X94973Y-99350D01*
X95330Y-100212D01*
X95898Y-100952D01*
X96638Y-101520D01*
X97500Y-101877D01*
X98425Y-101999D01*
X99350Y-101877D01*
X100212Y-101520D01*
X100952Y-100952D01*
X101520Y-100212D01*
X101877Y-99350D01*
X101999Y-98425D01*
X101877Y-97500D01*
X101520Y-96638D01*
X100952Y-95898D01*
X100212Y-95330D01*
X99350Y-94973D01*
X98425Y-94851D01*
D02*
G37*
G36*
X144390Y-96949D02*
X137106D01*
Y-103051D01*
X137270D01*
X137429Y-103290D01*
X137535Y-103551D01*
X137432Y-104331D01*
X137545Y-105189D01*
X137876Y-105989D01*
X138403Y-106675D01*
X139090Y-107202D01*
X139890Y-107534D01*
X140748Y-107647D01*
X141606Y-107534D01*
X142406Y-107202D01*
X143093Y-106675D01*
X143620Y-105989D01*
X143951Y-105189D01*
X144064Y-104331D01*
X143961Y-103551D01*
X144067Y-103290D01*
X144226Y-103051D01*
X144390D01*
Y-96949D01*
D02*
G37*
G36*
X42677Y-115779D02*
X41819Y-115892D01*
X41019Y-116223D01*
X40333Y-116750D01*
X40154Y-116983D01*
X39964Y-117129D01*
X37900Y-119193D01*
X34843D01*
Y-125689D01*
X42323D01*
Y-122791D01*
X42677Y-122410D01*
X43535Y-122297D01*
X44335Y-121966D01*
X45022Y-121439D01*
X45549Y-120752D01*
X45880Y-119953D01*
X45993Y-119095D01*
X45880Y-118236D01*
X45549Y-117437D01*
X45022Y-116750D01*
X44335Y-116223D01*
X43535Y-115892D01*
X42677Y-115779D01*
D02*
G37*
G36*
X71256Y-124787D02*
X68020D01*
Y-127236D01*
X71256D01*
Y-124787D01*
D02*
G37*
G36*
X67020D02*
X63784D01*
Y-127236D01*
X67020D01*
Y-124787D01*
D02*
G37*
G36*
X-984Y-116763D02*
X-1842Y-116876D01*
X-2642Y-117207D01*
X-3329Y-117734D01*
X-3856Y-118421D01*
X-4187Y-119221D01*
X-4300Y-120079D01*
X-4187Y-120937D01*
X-3856Y-121737D01*
X-3370Y-122369D01*
Y-124606D01*
X-3275Y-125326D01*
X-2998Y-125996D01*
X-2953Y-126055D01*
Y-127165D01*
X-1614D01*
X-1310Y-127291D01*
X-591Y-127386D01*
X129Y-127291D01*
X433Y-127165D01*
X1772D01*
Y-126055D01*
X1817Y-125996D01*
X2094Y-125326D01*
X2189Y-124606D01*
Y-121008D01*
X2218Y-120937D01*
X2331Y-120079D01*
X2218Y-119221D01*
X1887Y-118421D01*
X1360Y-117734D01*
X674Y-117207D01*
X-126Y-116876D01*
X-984Y-116763D01*
D02*
G37*
G36*
X59055Y-117747D02*
X58197Y-117860D01*
X57397Y-118192D01*
X56710Y-118718D01*
X56184Y-119405D01*
X55852Y-120205D01*
X55739Y-121063D01*
X55842Y-121843D01*
X55737Y-122104D01*
X55577Y-122343D01*
X55413D01*
Y-128445D01*
X62697D01*
Y-122343D01*
X62533D01*
X62374Y-122104D01*
X62268Y-121843D01*
X62371Y-121063D01*
X62258Y-120205D01*
X61927Y-119405D01*
X61400Y-118718D01*
X60713Y-118192D01*
X59913Y-117860D01*
X59055Y-117747D01*
D02*
G37*
G36*
X50197Y-117747D02*
X49339Y-117860D01*
X48539Y-118192D01*
X47852Y-118718D01*
X47325Y-119405D01*
X46994Y-120205D01*
X46881Y-121063D01*
X46984Y-121843D01*
X46878Y-122104D01*
X46719Y-122343D01*
X46555D01*
Y-128445D01*
X53839D01*
Y-122343D01*
X53675D01*
X53515Y-122104D01*
X53410Y-121843D01*
X53513Y-121063D01*
X53400Y-120205D01*
X53068Y-119405D01*
X52542Y-118718D01*
X51855Y-118192D01*
X51055Y-117860D01*
X50197Y-117747D01*
D02*
G37*
G36*
X188779Y-114075D02*
X181299D01*
Y-120571D01*
X183727D01*
Y-125295D01*
X182677D01*
Y-129232D01*
X187402D01*
Y-125295D01*
X186352D01*
Y-120571D01*
X188779D01*
Y-114075D01*
D02*
G37*
G36*
X42323Y-127461D02*
X34843D01*
Y-129396D01*
X31496D01*
Y-127461D01*
X24016D01*
Y-133957D01*
X31496D01*
Y-132021D01*
X34843D01*
Y-133957D01*
X39974D01*
X41365Y-135347D01*
Y-153156D01*
X40592Y-153476D01*
X39729Y-154138D01*
X39066Y-155002D01*
X38650Y-156008D01*
X38508Y-157087D01*
X38650Y-158166D01*
X39066Y-159171D01*
X39729Y-160035D01*
X40592Y-160697D01*
X41598Y-161114D01*
X42677Y-161256D01*
X43756Y-161114D01*
X44762Y-160697D01*
X45625Y-160035D01*
X46288Y-159171D01*
X46705Y-158166D01*
X46847Y-157087D01*
X46705Y-156008D01*
X46288Y-155002D01*
X45625Y-154138D01*
X44762Y-153476D01*
X43990Y-153156D01*
Y-134803D01*
X43890Y-134301D01*
X43605Y-133875D01*
X42323Y-132592D01*
Y-127461D01*
D02*
G37*
G36*
X71256Y-128236D02*
X67520D01*
X63784D01*
Y-130401D01*
X63784Y-130685D01*
X63373Y-130901D01*
X62697D01*
Y-129429D01*
X55413D01*
Y-129701D01*
X53839D01*
Y-129429D01*
X46555D01*
Y-135531D01*
X49898D01*
Y-152953D01*
X48543D01*
Y-161221D01*
X56811D01*
Y-152953D01*
X55457D01*
Y-135531D01*
X58175D01*
X58290Y-135647D01*
X58866Y-136088D01*
X59536Y-136366D01*
X60256Y-136461D01*
X67520D01*
X67850Y-136417D01*
X71043D01*
X71043Y-131097D01*
X71256Y-130685D01*
X71256Y-130533D01*
Y-128236D01*
D02*
G37*
G36*
X175213Y-129118D02*
X172941D01*
Y-131783D01*
X175213D01*
Y-129118D01*
D02*
G37*
G36*
X171941D02*
X169669D01*
Y-131783D01*
X171941D01*
Y-129118D01*
D02*
G37*
G36*
X187614Y-130791D02*
X185539D01*
Y-132472D01*
X187614D01*
Y-130791D01*
D02*
G37*
G36*
X184539D02*
X182465D01*
Y-132472D01*
X184539D01*
Y-130791D01*
D02*
G37*
G36*
X9252Y-122047D02*
X4528D01*
Y-127165D01*
X7593D01*
X12064Y-131637D01*
X12490Y-131921D01*
X12992Y-132021D01*
X13189D01*
Y-133957D01*
X20669D01*
Y-127461D01*
X13189D01*
Y-128396D01*
X12727Y-128587D01*
X9252Y-125112D01*
Y-122047D01*
D02*
G37*
G36*
X187614Y-133472D02*
X185539D01*
Y-135153D01*
X187614D01*
Y-133472D01*
D02*
G37*
G36*
X184539D02*
X182465D01*
Y-135153D01*
X184539D01*
Y-133472D01*
D02*
G37*
G36*
X154331Y-124834D02*
X153472Y-124947D01*
X152673Y-125278D01*
X151986Y-125805D01*
X151459Y-126492D01*
X151128Y-127291D01*
X151015Y-128150D01*
X151128Y-129008D01*
X151459Y-129807D01*
X151551Y-129927D01*
Y-132283D01*
X151646Y-133003D01*
X151772Y-133307D01*
Y-135236D01*
X156890D01*
Y-133307D01*
X157016Y-133003D01*
X157110Y-132283D01*
Y-129927D01*
X157202Y-129807D01*
X157534Y-129008D01*
X157647Y-128150D01*
X157534Y-127291D01*
X157202Y-126492D01*
X156675Y-125805D01*
X155989Y-125278D01*
X155189Y-124947D01*
X154331Y-124834D01*
D02*
G37*
G36*
X175213Y-132783D02*
X172941D01*
Y-135449D01*
X175213D01*
Y-132783D01*
D02*
G37*
G36*
X171941D02*
X169669D01*
Y-135449D01*
X171941D01*
Y-132783D01*
D02*
G37*
G36*
X94201Y-152769D02*
Y-156587D01*
X98019D01*
X97935Y-155952D01*
X97497Y-154895D01*
X96801Y-153987D01*
X95893Y-153290D01*
X94836Y-152852D01*
X94201Y-152769D01*
D02*
G37*
G36*
X93201Y-152769D02*
X92566Y-152852D01*
X91509Y-153290D01*
X90601Y-153987D01*
X89904Y-154895D01*
X89466Y-155952D01*
X89383Y-156587D01*
X93201D01*
Y-152769D01*
D02*
G37*
G36*
X126909Y-153248D02*
X119232D01*
Y-160925D01*
X126909D01*
Y-153248D01*
D02*
G37*
G36*
X107835Y-152953D02*
X99567D01*
Y-161221D01*
X107835D01*
Y-152953D01*
D02*
G37*
G36*
X5512Y-129921D02*
X787D01*
Y-135039D01*
X3852D01*
X14426Y-145613D01*
X14852Y-145898D01*
X15354Y-145998D01*
X19732D01*
X28970Y-155235D01*
X28650Y-156008D01*
X28508Y-157087D01*
X28650Y-158166D01*
X29066Y-159171D01*
X29729Y-160035D01*
X30592Y-160697D01*
X31598Y-161114D01*
X32677Y-161256D01*
X33756Y-161114D01*
X34762Y-160697D01*
X35625Y-160035D01*
X36288Y-159171D01*
X36705Y-158166D01*
X36847Y-157087D01*
X36705Y-156008D01*
X36288Y-155002D01*
X35625Y-154138D01*
X34762Y-153476D01*
X33756Y-153059D01*
X32677Y-152917D01*
X31598Y-153059D01*
X30826Y-153379D01*
X21204Y-143757D01*
X20778Y-143472D01*
X20276Y-143372D01*
X15898D01*
X5512Y-132986D01*
Y-129921D01*
D02*
G37*
G36*
X22677Y-152917D02*
X21598Y-153059D01*
X20592Y-153476D01*
X19729Y-154138D01*
X19066Y-155002D01*
X18650Y-156008D01*
X18508Y-157087D01*
X18650Y-158166D01*
X19066Y-159171D01*
X19729Y-160035D01*
X20592Y-160697D01*
X21598Y-161114D01*
X22677Y-161256D01*
X23756Y-161114D01*
X24762Y-160697D01*
X25626Y-160035D01*
X26288Y-159171D01*
X26705Y-158166D01*
X26847Y-157087D01*
X26705Y-156008D01*
X26288Y-155002D01*
X25626Y-154138D01*
X24762Y-153476D01*
X23756Y-153059D01*
X22677Y-152917D01*
D02*
G37*
G36*
X83701Y-152917D02*
X82622Y-153059D01*
X81616Y-153476D01*
X80752Y-154138D01*
X80090Y-155002D01*
X79673Y-156008D01*
X79531Y-157087D01*
X79673Y-158166D01*
X80090Y-159171D01*
X80752Y-160035D01*
X81616Y-160697D01*
X82622Y-161114D01*
X83701Y-161256D01*
X84780Y-161114D01*
X85786Y-160697D01*
X86649Y-160035D01*
X87312Y-159171D01*
X87728Y-158166D01*
X87870Y-157087D01*
X87728Y-156008D01*
X87312Y-155002D01*
X86649Y-154138D01*
X85786Y-153476D01*
X84780Y-153059D01*
X83701Y-152917D01*
D02*
G37*
G36*
X98019Y-157587D02*
X94201D01*
Y-161405D01*
X94836Y-161321D01*
X95893Y-160883D01*
X96801Y-160187D01*
X97497Y-159279D01*
X97935Y-158221D01*
X98019Y-157587D01*
D02*
G37*
G36*
X93201D02*
X89383D01*
X89466Y-158221D01*
X89904Y-159279D01*
X90601Y-160187D01*
X91509Y-160883D01*
X92566Y-161321D01*
X93201Y-161405D01*
Y-157587D01*
D02*
G37*
G36*
X196850Y-145830D02*
X195028Y-145974D01*
X193250Y-146400D01*
X191561Y-147100D01*
X190003Y-148055D01*
X188613Y-149242D01*
X187425Y-150633D01*
X186470Y-152191D01*
X185770Y-153880D01*
X185344Y-155658D01*
X185200Y-157480D01*
X185344Y-159303D01*
X185770Y-161080D01*
X186470Y-162769D01*
X187425Y-164328D01*
X188613Y-165718D01*
X190003Y-166905D01*
X191561Y-167861D01*
X193250Y-168560D01*
X195028Y-168987D01*
X196850Y-169130D01*
X198673Y-168987D01*
X200450Y-168560D01*
X202139Y-167861D01*
X203698Y-166905D01*
X205088Y-165718D01*
X206276Y-164328D01*
X207231Y-162769D01*
X207930Y-161080D01*
X208357Y-159303D01*
X208501Y-157480D01*
X208357Y-155658D01*
X207930Y-153880D01*
X207231Y-152191D01*
X206276Y-150633D01*
X205088Y-149242D01*
X203698Y-148055D01*
X202139Y-147100D01*
X200450Y-146400D01*
X198673Y-145974D01*
X196850Y-145830D01*
D02*
G37*
G36*
X0D02*
X-1822Y-145974D01*
X-3600Y-146400D01*
X-5289Y-147100D01*
X-6848Y-148055D01*
X-8238Y-149242D01*
X-9425Y-150633D01*
X-10380Y-152191D01*
X-11080Y-153880D01*
X-11507Y-155658D01*
X-11650Y-157480D01*
X-11507Y-159303D01*
X-11080Y-161080D01*
X-10380Y-162769D01*
X-9425Y-164328D01*
X-8238Y-165718D01*
X-6848Y-166905D01*
X-5289Y-167861D01*
X-3600Y-168560D01*
X-1822Y-168987D01*
X0Y-169130D01*
X1822Y-168987D01*
X3600Y-168560D01*
X5289Y-167861D01*
X6848Y-166905D01*
X8238Y-165718D01*
X9425Y-164328D01*
X10380Y-162769D01*
X11080Y-161080D01*
X11507Y-159303D01*
X11650Y-157480D01*
X11507Y-155658D01*
X11080Y-153880D01*
X10380Y-152191D01*
X9425Y-150633D01*
X8238Y-149242D01*
X6848Y-148055D01*
X5289Y-147100D01*
X3600Y-146400D01*
X1822Y-145974D01*
X0Y-145830D01*
D02*
G37*
%LPD*%
D15*
X131890Y-98445D02*
D03*
Y-92500D02*
D03*
X53150Y-26594D02*
D03*
Y-20650D02*
D03*
X33622Y-24626D02*
D03*
Y-18681D02*
D03*
X67520Y-127736D02*
D03*
Y-133681D02*
D03*
X73622Y-24626D02*
D03*
Y-18681D02*
D03*
X114173Y-24626D02*
D03*
Y-18681D02*
D03*
X153622Y-24626D02*
D03*
Y-18681D02*
D03*
X93701Y-25630D02*
D03*
Y-19685D02*
D03*
X133465Y-25630D02*
D03*
Y-19685D02*
D03*
X173071Y-25630D02*
D03*
Y-19685D02*
D03*
D16*
X43307Y-20079D02*
D03*
Y-27165D02*
D03*
X45276Y-48819D02*
D03*
Y-41732D02*
D03*
X140748Y-100000D02*
D03*
Y-92913D02*
D03*
X149606Y-100000D02*
D03*
Y-92913D02*
D03*
X50197Y-125394D02*
D03*
Y-132480D02*
D03*
X59055Y-125394D02*
D03*
Y-132480D02*
D03*
X84646Y-48819D02*
D03*
Y-41732D02*
D03*
X123465Y-48819D02*
D03*
Y-41732D02*
D03*
X163386Y-48819D02*
D03*
Y-41732D02*
D03*
X83465Y-19075D02*
D03*
Y-26161D02*
D03*
X123622Y-20079D02*
D03*
Y-27165D02*
D03*
X163386Y-20079D02*
D03*
Y-27165D02*
D03*
D17*
X33465Y-33268D02*
D03*
Y-41535D02*
D03*
X27756Y-130709D02*
D03*
Y-122441D02*
D03*
X38583D02*
D03*
Y-130709D02*
D03*
X185039Y-109055D02*
D03*
Y-117323D02*
D03*
X16929Y-122441D02*
D03*
Y-130709D02*
D03*
X73465Y-33268D02*
D03*
Y-41535D02*
D03*
X112205Y-33268D02*
D03*
Y-41535D02*
D03*
X151575Y-33268D02*
D03*
Y-41535D02*
D03*
D18*
X164173Y-82303D02*
D03*
Y-77303D02*
D03*
Y-72303D02*
D03*
Y-67303D02*
D03*
X137008Y-82303D02*
D03*
Y-77303D02*
D03*
Y-72303D02*
D03*
Y-67303D02*
D03*
D19*
X163386Y-105905D02*
D03*
D20*
X172441Y-132283D02*
D03*
X163386D02*
D03*
X154331D02*
D03*
D21*
X173819Y-97441D02*
D03*
X162795D02*
D03*
D22*
X185039Y-132972D02*
D03*
Y-127264D02*
D03*
D23*
X6890Y-124606D02*
D03*
X-591D02*
D03*
X3150Y-132480D02*
D03*
D41*
X164173Y-82303D02*
X169665D01*
X151201D02*
X164173D01*
X147638Y-78740D02*
X151201Y-82303D01*
X108268Y-86614D02*
Y-86614D01*
Y-86614D02*
X110567Y-88913D01*
X112354Y-108417D02*
Y-77685D01*
X115157Y-107815D02*
Y-80709D01*
X116945Y-85811D02*
X122047Y-80709D01*
X116945Y-107075D02*
Y-85811D01*
X110567Y-109158D02*
Y-88913D01*
Y-109158D02*
X133071Y-131662D01*
X115157Y-80709D02*
X116142Y-79724D01*
X119077Y-77303D02*
X120097D01*
X117710Y-75937D02*
X119077Y-77303D01*
X108267Y-78740D02*
Y-76319D01*
X114573Y-75937D02*
X117710D01*
X112354Y-77685D02*
X112736Y-77303D01*
X112354Y-108417D02*
X143071Y-139134D01*
X120478Y-76921D02*
X136626D01*
X99410Y-63976D02*
X112736Y-77303D01*
X133071Y-157087D02*
Y-131662D01*
X123622Y-20079D02*
X124016Y-19685D01*
X133465D01*
X112205Y-41535D02*
X112402Y-41732D01*
X123465D01*
X168701D02*
X176484Y-49516D01*
X169665Y-82303D02*
X176484Y-75484D01*
Y-49516D01*
X94252Y-67677D02*
X96457Y-69882D01*
X82520Y-67677D02*
X94252D01*
X97713Y-65764D02*
X108267Y-76319D01*
X73606Y-65764D02*
X97713D01*
X67520Y-63976D02*
X99410D01*
X27756Y-122441D02*
X82520Y-67677D01*
X16929Y-122441D02*
X73606Y-65764D01*
X45276Y-41732D02*
X67520Y-63976D01*
X6890Y-124606D02*
X12992Y-130709D01*
X16929D01*
X185039Y-127264D02*
Y-117323D01*
X163071Y-157087D02*
Y-153201D01*
X116945Y-107075D02*
X163071Y-153201D01*
X136626Y-76921D02*
X137008Y-77303D01*
X120097D02*
X120478Y-76921D01*
X127756Y-67677D02*
X128130Y-67303D01*
X137008D01*
X121595Y-72303D02*
X137008D01*
X121063Y-72835D02*
X121595Y-72303D01*
X113207Y-77303D02*
X114573Y-75937D01*
X112736Y-77303D02*
X113207D01*
X115157Y-107815D02*
X153071Y-145728D01*
Y-157087D02*
Y-145728D01*
X143071Y-157087D02*
Y-139134D01*
X27756Y-130709D02*
X38583D01*
X42677Y-134803D01*
Y-157087D02*
Y-134803D01*
X3150Y-132480D02*
X15354Y-144685D01*
X20276D01*
X32677Y-157087D01*
X163386Y-41732D02*
X168701D01*
X123465D02*
X127756D01*
X158327Y-72303D01*
X164173D01*
X73465Y-41535D02*
X93268D01*
X110787Y-59055D01*
X139390D01*
X157638Y-77303D01*
X164173D01*
X112205Y-26594D02*
X114173Y-24626D01*
X112205Y-33268D02*
Y-26594D01*
X163189Y-41535D02*
X163386Y-41732D01*
X151575Y-41535D02*
X163189D01*
X153622Y-31220D02*
Y-24626D01*
X151575Y-33268D02*
X153622Y-31220D01*
Y-8783D02*
X163465Y1059D01*
X153622Y-18681D02*
Y-8783D01*
X133465Y-19685D02*
Y1059D01*
X173071Y665D02*
X173465Y1059D01*
X173071Y-19685D02*
Y665D01*
X163779Y-19685D02*
X173071D01*
X163386Y-20079D02*
X163779Y-19685D01*
X114173Y-8232D02*
X123465Y1059D01*
X114173Y-18681D02*
Y-8232D01*
X93465Y-19449D02*
X93701Y-19685D01*
X93465Y-19449D02*
Y1059D01*
X73465Y-33268D02*
X73622Y-33110D01*
Y-24626D01*
X83465Y-19075D02*
X84075Y-19685D01*
X93701D01*
X73622Y-8783D02*
X83465Y1059D01*
X73622Y-18681D02*
Y-8783D01*
X33465Y-41535D02*
X33661Y-41732D01*
X45276D01*
X33465Y-24783D02*
X33622Y-24626D01*
X33465Y-33268D02*
Y-24783D01*
X53150Y744D02*
X53465Y1059D01*
X53150Y-20650D02*
Y744D01*
X52579Y-20079D02*
X53150Y-20650D01*
X43307Y-20079D02*
X52579D01*
X43465Y-8839D02*
Y1059D01*
X33622Y-18681D02*
X43465Y-8839D01*
D42*
X135827Y-111221D02*
X162795D01*
Y-109055D02*
Y-97441D01*
Y-111221D02*
Y-109055D01*
X163386Y-109646D01*
Y-132283D02*
Y-109646D01*
X179134Y-25630D02*
X183405Y-29902D01*
Y-99618D02*
Y-29902D01*
X177118Y-105905D02*
X183405Y-99618D01*
X163386Y-105905D02*
X177118D01*
X186023Y-108071D02*
Y-105315D01*
X185039Y-109055D02*
X186023Y-108071D01*
X173819Y-97441D02*
X178150D01*
X173071Y-25630D02*
X179134D01*
X139724D02*
X139764Y-25591D01*
X133465Y-25630D02*
X139724D01*
X93701D02*
X100354D01*
X60020Y-26594D02*
X60039Y-26575D01*
X53150Y-26594D02*
X60020D01*
X149606Y-104331D02*
Y-100000D01*
Y-105315D02*
Y-104331D01*
X140748D02*
X140748D01*
X140748D02*
Y-100000D01*
X131890Y-107283D02*
X135827Y-111221D01*
X131890Y-107283D02*
Y-98445D01*
X59055Y-132480D02*
X60256Y-133681D01*
X67520D01*
X59055Y-121063D02*
X59055Y-121063D01*
Y-125394D02*
Y-121063D01*
X50197Y-125394D02*
Y-121063D01*
X41929Y-119095D02*
X42677D01*
X38583Y-122441D02*
X41929Y-119095D01*
X-984Y-120079D02*
X-591Y-120473D01*
Y-124606D02*
Y-120473D01*
X154331Y-132283D02*
Y-128150D01*
X164173Y-67303D02*
X172697D01*
X163386Y-53071D02*
Y-48819D01*
X163386Y-31417D02*
Y-27165D01*
X123465Y-52756D02*
Y-48819D01*
X123622Y-30945D02*
Y-27165D01*
X84646Y-53150D02*
Y-48819D01*
X83465Y-30276D02*
Y-26161D01*
X43307Y-31339D02*
Y-27165D01*
X45276Y-53150D02*
Y-48819D01*
X184350Y-132283D02*
X185039Y-132972D01*
X172441Y-132283D02*
X184350D01*
X93701Y-157677D02*
Y-157087D01*
Y-157677D02*
X100394Y-164370D01*
X176181D01*
X181102Y-159449D01*
Y-140945D01*
X172441Y-132283D02*
X181102Y-140945D01*
X86398Y-90768D02*
X98425Y-78740D01*
X86398Y-127736D02*
Y-90768D01*
X53150Y-132480D02*
X59055D01*
X52677Y-132953D02*
X53150Y-132480D01*
X52677Y-157087D02*
Y-132953D01*
X93701Y-157087D02*
Y-135039D01*
X86398Y-127736D02*
X93701Y-135039D01*
X67520Y-127736D02*
X86398D01*
X149606Y-92913D02*
Y-88583D01*
X143327Y-82303D02*
X149606Y-88583D01*
X137008Y-82303D02*
X143327D01*
X140748Y-92913D02*
X149606D01*
X132303D02*
X140748D01*
X131890Y-92500D02*
X132303Y-92913D01*
X173071Y-157087D02*
Y-147283D01*
X163386Y-137598D02*
X173071Y-147283D01*
X163386Y-137598D02*
Y-132283D01*
D43*
X196850Y-157480D02*
D03*
Y-1969D02*
D03*
X0Y0D02*
D03*
Y-157480D02*
D03*
D44*
X52677Y-157087D02*
D03*
X103701Y-157087D02*
D03*
D45*
X42677Y-157087D02*
D03*
X32677D02*
D03*
X22677D02*
D03*
X93701Y-157087D02*
D03*
X83701D02*
D03*
D46*
X53465Y1059D02*
D03*
X43465D02*
D03*
X143071Y-157087D02*
D03*
X153071D02*
D03*
X163071D02*
D03*
X173071D02*
D03*
X133071D02*
D03*
X93465Y1059D02*
D03*
X83465D02*
D03*
X133465D02*
D03*
X123465D02*
D03*
X173465D02*
D03*
X163465D02*
D03*
D47*
X33465D02*
D03*
X123071Y-157087D02*
D03*
X73465Y1059D02*
D03*
X113465D02*
D03*
X153465D02*
D03*
D48*
X98425Y-78740D02*
D03*
D49*
Y-98425D02*
D03*
D50*
X147638Y-78740D02*
D03*
X108268Y-86614D02*
D03*
X116142Y-79724D02*
D03*
X108267Y-78740D02*
D03*
X122047Y-80709D02*
D03*
X186023Y-105315D02*
D03*
X178150Y-97441D02*
D03*
X179134Y-25630D02*
D03*
X139764Y-25591D02*
D03*
X100354Y-25630D02*
D03*
X60039Y-26575D02*
D03*
X149606Y-104331D02*
D03*
X140748D02*
D03*
X59055Y-121063D02*
D03*
X50197Y-121063D02*
D03*
X42677Y-119095D02*
D03*
X-984Y-120079D02*
D03*
X154331Y-128150D02*
D03*
X172697Y-67303D02*
D03*
X163386Y-53071D02*
D03*
X163386Y-31417D02*
D03*
X123465Y-52756D02*
D03*
X123622Y-30945D02*
D03*
X84646Y-53150D02*
D03*
X83465Y-30276D02*
D03*
X43307Y-31339D02*
D03*
X45276Y-53150D02*
D03*
X96457Y-69882D02*
D03*
X127756Y-67677D02*
D03*
X121063Y-72835D02*
D03*
M02*
